HIERARCHY
ROOT Hips
{
  OFFSET -284.916 88.9611 1553.99
  CHANNELS 6 Xposition Yposition Zposition Zrotation Xrotation Yrotation
  JOINT Spine
  {
    OFFSET 0 8 0
    CHANNELS 6 Xposition Yposition Zposition Zrotation Xrotation Yrotation
    JOINT Spine1
    {
      OFFSET 0 8 0
      CHANNELS 6 Xposition Yposition Zposition Zrotation Xrotation Yrotation
      JOINT Spine2
      {
        OFFSET 0 8 0
        CHANNELS 6 Xposition Yposition Zposition Zrotation Xrotation Yrotation
        JOINT Spine3
        {
          OFFSET 0 8 0
          CHANNELS 6 Xposition Yposition Zposition Zrotation Xrotation Yrotation
          JOINT Neck
          {
            OFFSET 0 17 0
            CHANNELS 6 Xposition Yposition Zposition Zrotation Xrotation Yrotation
            JOINT Head
            {
              OFFSET 0 10.8 0
              CHANNELS 6 Xposition Yposition Zposition Zrotation Xrotation Yrotation
              End Site
              {
                OFFSET 0 20.25 0
              }
            }
          }
          JOINT LeftShoulder
          {
            OFFSET 5 17 0
            CHANNELS 6 Xposition Yposition Zposition Zrotation Xrotation Yrotation
            JOINT LeftShoulder2
            {
              OFFSET 6.45 0 0
              CHANNELS 6 Xposition Yposition Zposition Zrotation Xrotation Yrotation
              JOINT LeftArm
              {
                OFFSET 6.45 0 0
                CHANNELS 6 Xposition Yposition Zposition Zrotation Xrotation Yrotation
                JOINT LeftForeArm
                {
                  OFFSET 0 -32.4 -2
                  CHANNELS 6 Xposition Yposition Zposition Zrotation Xrotation Yrotation
                  JOINT LeftHand
                  {
                    OFFSET 0 -25.65 2
                    CHANNELS 6 Xposition Yposition Zposition Zrotation Xrotation Yrotation
                    JOINT LeftHandThumb1
                    {
                      OFFSET -0.5 -1.5 2.65
                      CHANNELS 6 Xposition Yposition Zposition Zrotation Xrotation Yrotation
                      JOINT LeftHandThumb2
                      {
                        OFFSET 0 -3.8 3.7
                        CHANNELS 6 Xposition Yposition Zposition Zrotation Xrotation Yrotation
                        JOINT LeftHandThumb3
                        {
                          OFFSET 0 -3 2.7
                          CHANNELS 6 Xposition Yposition Zposition Zrotation Xrotation Yrotation
                          End Site
                          {
                            OFFSET 0 -2.3 1.8
                          }
                        }
                      }
                    }
                    JOINT LeftHandIndex
                    {
                      OFFSET 0 -1.9 1.6
                      CHANNELS 6 Xposition Yposition Zposition Zrotation Xrotation Yrotation
                      JOINT LeftHandIndex1
                      {
                        OFFSET 0 -8.3 1.9
                        CHANNELS 6 Xposition Yposition Zposition Zrotation Xrotation Yrotation
                        JOINT LeftHandIndex2
                        {
                          OFFSET 0 -4.5 0
                          CHANNELS 6 Xposition Yposition Zposition Zrotation Xrotation Yrotation
                          JOINT LeftHandIndex3
                          {
                            OFFSET 0 -3.4 0
                            CHANNELS 6 Xposition Yposition Zposition Zrotation Xrotation Yrotation
                            End Site
                            {
                              OFFSET 0 -2.6 0
                            }
                          }
                        }
                      }
                    }
                    JOINT LeftHandMiddle
                    {
                      OFFSET -0.25 -2.2 0.4
                      CHANNELS 6 Xposition Yposition Zposition Zrotation Xrotation Yrotation
                      JOINT LeftHandMiddle1
                      {
                        OFFSET 0 -8.3 1
                        CHANNELS 6 Xposition Yposition Zposition Zrotation Xrotation Yrotation
                        JOINT LeftHandMiddle2
                        {
                          OFFSET 0 -4.65 0
                          CHANNELS 6 Xposition Yposition Zposition Zrotation Xrotation Yrotation
                          JOINT LeftHandMiddle3
                          {
                            OFFSET 0 -3.3 0
                            CHANNELS 6 Xposition Yposition Zposition Zrotation Xrotation Yrotation
                            End Site
                            {
                              OFFSET 0 -2.7 0
                            }
                          }
                        }
                      }
                    }
                    JOINT LeftHandRing
                    {
                      OFFSET -0.5 -2.15 -0.8
                      CHANNELS 6 Xposition Yposition Zposition Zrotation Xrotation Yrotation
                      JOINT LeftHandRing1
                      {
                        OFFSET 0 -7.75 -0.2
                        CHANNELS 6 Xposition Yposition Zposition Zrotation Xrotation Yrotation
                        JOINT LeftHandRing2
                        {
                          OFFSET 0 -3.8 0
                          CHANNELS 6 Xposition Yposition Zposition Zrotation Xrotation Yrotation
                          JOINT LeftHandRing3
                          {
                            OFFSET 0 -3.4 0
                            CHANNELS 6 Xposition Yposition Zposition Zrotation Xrotation Yrotation
                            End Site
                            {
                              OFFSET 0 -2.6 0
                            }
                          }
                        }
                      }
                    }
                    JOINT LeftHandPinky
                    {
                      OFFSET -0.75 -1.75 -1.85
                      CHANNELS 6 Xposition Yposition Zposition Zrotation Xrotation Yrotation
                      JOINT LeftHandPinky1
                      {
                        OFFSET 0 -7.15 -1
                        CHANNELS 6 Xposition Yposition Zposition Zrotation Xrotation Yrotation
                        JOINT LeftHandPinky2
                        {
                          OFFSET 0 -3 0
                          CHANNELS 6 Xposition Yposition Zposition Zrotation Xrotation Yrotation
                          JOINT LeftHandPinky3
                          {
                            OFFSET 0 -2.35 0
                            CHANNELS 6 Xposition Yposition Zposition Zrotation Xrotation Yrotation
                            End Site
                            {
                              OFFSET 0 -2.1 0
                            }
                          }
                        }
                      }
                    }
                  }
                }
              }
            }
          }
          JOINT RightShoulder
          {
            OFFSET -5 17 0
            CHANNELS 6 Xposition Yposition Zposition Zrotation Xrotation Yrotation
            JOINT RightShoulder2
            {
              OFFSET -6.45 0 0
              CHANNELS 6 Xposition Yposition Zposition Zrotation Xrotation Yrotation
              JOINT RightArm
              {
                OFFSET -6.45 0 0
                CHANNELS 6 Xposition Yposition Zposition Zrotation Xrotation Yrotation
                JOINT RightForeArm
                {
                  OFFSET 0 -32.4 -2
                  CHANNELS 6 Xposition Yposition Zposition Zrotation Xrotation Yrotation
                  JOINT RightHand
                  {
                    OFFSET 0 -25.65 2
                    CHANNELS 6 Xposition Yposition Zposition Zrotation Xrotation Yrotation
                    JOINT RightHandThumb1
                    {
                      OFFSET 0.5 -1.5 2.65
                      CHANNELS 6 Xposition Yposition Zposition Zrotation Xrotation Yrotation
                      JOINT RightHandThumb2
                      {
                        OFFSET 0 -3.8 3.7
                        CHANNELS 6 Xposition Yposition Zposition Zrotation Xrotation Yrotation
                        JOINT RightHandThumb3
                        {
                          OFFSET 0 -3 2.7
                          CHANNELS 6 Xposition Yposition Zposition Zrotation Xrotation Yrotation
                          End Site
                          {
                            OFFSET 0 -2.3 1.8
                          }
                        }
                      }
                    }
                    JOINT RightHandIndex
                    {
                      OFFSET 0 -1.9 1.6
                      CHANNELS 6 Xposition Yposition Zposition Zrotation Xrotation Yrotation
                      JOINT RightHandIndex1
                      {
                        OFFSET 0 -8.3 1.9
                        CHANNELS 6 Xposition Yposition Zposition Zrotation Xrotation Yrotation
                        JOINT RightHandIndex2
                        {
                          OFFSET 0 -4.5 0
                          CHANNELS 6 Xposition Yposition Zposition Zrotation Xrotation Yrotation
                          JOINT RightHandIndex3
                          {
                            OFFSET 0 -3.4 0
                            CHANNELS 6 Xposition Yposition Zposition Zrotation Xrotation Yrotation
                            End Site
                            {
                              OFFSET 0 -2.6 0
                            }
                          }
                        }
                      }
                    }
                    JOINT RightHandMiddle
                    {
                      OFFSET 0.25 -2.2 0.4
                      CHANNELS 6 Xposition Yposition Zposition Zrotation Xrotation Yrotation
                      JOINT RightHandMiddle1
                      {
                        OFFSET 0 -8.3 1
                        CHANNELS 6 Xposition Yposition Zposition Zrotation Xrotation Yrotation
                        JOINT RightHandMiddle2
                        {
                          OFFSET 0 -4.65 0
                          CHANNELS 6 Xposition Yposition Zposition Zrotation Xrotation Yrotation
                          JOINT RightHandMiddle3
                          {
                            OFFSET 0 -3.3 0
                            CHANNELS 6 Xposition Yposition Zposition Zrotation Xrotation Yrotation
                            End Site
                            {
                              OFFSET 0 -2.7 0
                            }
                          }
                        }
                      }
                    }
                    JOINT RightHandRing
                    {
                      OFFSET 0.5 -2.15 -0.8
                      CHANNELS 6 Xposition Yposition Zposition Zrotation Xrotation Yrotation
                      JOINT RightHandRing1
                      {
                        OFFSET 0 -7.75 -0.2
                        CHANNELS 6 Xposition Yposition Zposition Zrotation Xrotation Yrotation
                        JOINT RightHandRing2
                        {
                          OFFSET 0 -3.8 0
                          CHANNELS 6 Xposition Yposition Zposition Zrotation Xrotation Yrotation
                          JOINT RightHandRing3
                          {
                            OFFSET 0 -3.4 0
                            CHANNELS 6 Xposition Yposition Zposition Zrotation Xrotation Yrotation
                            End Site
                            {
                              OFFSET 0 -2.6 0
                            }
                          }
                        }
                      }
                    }
                    JOINT RightHandPinky
                    {
                      OFFSET 0.75 -1.75 -1.85
                      CHANNELS 6 Xposition Yposition Zposition Zrotation Xrotation Yrotation
                      JOINT RightHandPinky1
                      {
                        OFFSET 0 -7.15 -1
                        CHANNELS 6 Xposition Yposition Zposition Zrotation Xrotation Yrotation
                        JOINT RightHandPinky2
                        {
                          OFFSET 0 -3 0
                          CHANNELS 6 Xposition Yposition Zposition Zrotation Xrotation Yrotation
                          JOINT RightHandPinky3
                          {
                            OFFSET 0 -2.35 0
                            CHANNELS 6 Xposition Yposition Zposition Zrotation Xrotation Yrotation
                            End Site
                            {
                              OFFSET 0 -2.1 0
                            }
                          }
                        }
                      }
                    }
                  }
                }
              }
            }
          }
        }
      }
    }
  }
  JOINT LeftUpLeg
  {
    OFFSET 8 0 0
    CHANNELS 6 Xposition Yposition Zposition Zrotation Xrotation Yrotation
    JOINT LeftLeg
    {
      OFFSET 0 -45 -1
      CHANNELS 6 Xposition Yposition Zposition Zrotation Xrotation Yrotation
      JOINT LeftFoot
      {
        OFFSET 0 -41 -2
        CHANNELS 6 Xposition Yposition Zposition Zrotation Xrotation Yrotation
        JOINT LeftToeBase
        {
          OFFSET 0 -7.5 12.5
          CHANNELS 6 Xposition Yposition Zposition Zrotation Xrotation Yrotation
          JOINT LeftFootToe
          {
            OFFSET 0 0 4
            CHANNELS 6 Xposition Yposition Zposition Zrotation Xrotation Yrotation
            End Site
            {
              OFFSET 0 0 0
            }
          }
        }
      }
    }
  }
  JOINT RightUpLeg
  {
    OFFSET -8 0 0
    CHANNELS 6 Xposition Yposition Zposition Zrotation Xrotation Yrotation
    JOINT RightLeg
    {
      OFFSET 0 -45 -1
      CHANNELS 6 Xposition Yposition Zposition Zrotation Xrotation Yrotation
      JOINT RightFoot
      {
        OFFSET 0 -41 -2
        CHANNELS 6 Xposition Yposition Zposition Zrotation Xrotation Yrotation
        JOINT RightToeBase
        {
          OFFSET 0 -7.5 12.5
          CHANNELS 6 Xposition Yposition Zposition Zrotation Xrotation Yrotation
          JOINT RightFootToe
          {
            OFFSET 0 0 4
            CHANNELS 6 Xposition Yposition Zposition Zrotation Xrotation Yrotation
            End Site
            {
              OFFSET 0 0 0
            }
          }
        }
      }
    }
  }
}
MOTION
Frames:	3
Frame Time:	0.0111111
-277.078 90.9235 1549.52 -0.218073 -5.6153 136.52 1.13687e-13 8 0 7.99307 23.6424 3.22682 0 8 0 -1.08755 7.60583 1.08613 -1.13687e-13 8 0 -0.525818 3.81024 0.530085 -1.13687e-13 8 -2.27374e-13 -0.524574 3.80145 0.528828 2.27374e-13 17 -2.27374e-13 -1.01028 3.53918 -3.15663 -1.13687e-13 10.8 0 -2.04461 8.30908 -7.30393 5 17 0 -10.3136 -2.5506 12.3708 6.45 1.13687e-13 2.27374e-13 -0.337812 -0.877099 1.86336 6.45 1.13687e-13 -2.27374e-13 12.6482 -14.6011 21.8228 2.84217e-14 -32.4 -2 24.4848 -73.159 -51.0501 0 -25.65 2 49.9089 -24.2233 10.7105 -0.5 -1.5 2.65 -28.2508 -57.7372 122.694 2.27374e-13 -3.8 3.7 -0.0175134 31.6405 -0.000124112 0 -3 2.7 -0.00943166 28.7948 0.00615882 5.68434e-14 -1.9 1.6 -6.36111e-15 -3.18055e-15 -7.15625e-15 0 -8.3 1.9 -26.1248 13.9205 3.79318 2.27374e-13 -4.5 -1.13687e-13 -56.2032 0.00200809 -0.00414096 0 -3.4 5.68434e-14 -39.0004 0.00133032 -0.0020167 -0.25 -2.2 0.4 -6.36111e-15 -3.18055e-15 -7.15625e-15 0 -8.3 1 -33.8811 15.2286 6.04231 5.68434e-14 -4.65 0 -72.1908 0.00093981 -0.000300696 -2.27374e-13 -3.3 5.68434e-14 -90.0002 3.99557e-13 -4.11571e-13 -0.5 -2.15 -0.8 -6.36111e-15 -3.18055e-15 -7.15625e-15 -2.84217e-13 -7.75 -0.2 -70.7645 0.222775 10.1546 0 -3.8 -5.68434e-14 -1.77322 -0.00221463 0.00187035 0 -3.4 -5.68434e-14 -90.0002 -0.00108337 -4.21423e-14 -0.75 -1.75 -1.85 -6.36111e-15 -3.18055e-15 -7.15625e-15 5.68434e-14 -7.15 -1 -48.1662 11.8108 8.27056 2.27374e-13 -3 0 -63.1247 0.00138269 -0.000756585 0 -2.35 1.7053e-13 -90.0002 3.10104e-14 -4.84538e-15 -5 17 -2.27374e-13 -1.48846 0.488966 5.26726 -6.45 1.13687e-13 -2.27374e-13 -2.03085 0.526642 -0.336614 -6.45 0 -2.27374e-13 -68.1046 -32.1033 -3.08136 0 -32.4 -2 -5.67582 -61.4417 -10.6251 0 -25.65 2 -9.1804 16.2801 4.35786 0.5 -1.5 2.65 20.4943 14.288 12.9886 -1.13687e-13 -3.8 3.7 1.13388 11.1526 -0.360345 0 -3 2.7 0.0435353 0.714984 -0.057092 0 -1.9 1.6 3.97569e-16 6.36111e-15 7.95139e-16 0 -8.3 1.9 27.8264 7.50084 -2.0635 0 -4.5 -2.27374e-13 14.9326 -0.00442829 -0.00100575 0 -3.4 -2.27374e-13 12.4553 -0.00409755 -0.000714472 0.25 -2.2 0.4 3.97569e-16 6.36111e-15 7.95139e-16 0 -8.3 1 31.7141 5.88163 -2.76444 0 -4.65 0 61.9411 -0.00127912 0.00039301 0 -3.3 0 43.7566 -0.00251037 0.00670826 0.5 -2.15 -0.8 3.97569e-16 6.36111e-15 7.95139e-16 5.68434e-14 -7.75 -0.2 51.4521 8.83073 -7.85006 0 -3.8 -2.27374e-13 59.7619 0.00329686 -0.00122793 0 -3.4 0 41.8715 0.000614433 -0.00302525 0.75 -1.75 -1.85 3.97569e-16 6.36111e-15 7.95139e-16 -5.68434e-14 -7.15 -1 64.5272 -6.98017 -1.15876 0 -3 0 25.0727 -0.00678097 0.00116358 0 -2.35 -2.27374e-13 19.1025 -0.00354967 0.00051024 8 5.68434e-14 0 2.99339 -22.1888 -39.6263 0 -45 -1 0.412859 19.5973 -3.38941 4.54747e-13 -41 -2 2.05526 -3.03303 23.9189 0 -7.5 12.5 0 0 -0 0 0 4 14.2239 -4.08422 83.4182 -8 0 -2.27374e-13 3.77244 -13.7094 -19.2214 -4.54747e-13 -45 -1 0.149613 22.0708 -1.07637 2.27374e-13 -41 -2 -3.1615 -13.1684 13.7823 0 -7.5 12.5 2.35377e-18 -0.00185781 1.27222e-14 0 0 4 2.96161 10.2892 56.0555 
-277.076 90.9236 1549.53 -0.230245 -5.61783 136.527 0 8 -2.27374e-13 7.99306 23.6481 3.22719 0 8 0 -1.08603 7.60971 1.08632 -1.13687e-13 8 -2.27374e-13 -0.524564 3.81213 0.530103 1.13687e-13 8 0 -0.523321 3.80331 0.528846 0 17 0 -1.01001 3.53915 -3.15644 0 10.8 0 -2.04425 8.30864 -7.30516 5 17 2.27374e-13 -10.3154 -2.55011 12.3648 6.45 -1.13687e-13 0 -0.339936 -0.874461 1.86603 6.45 1.13687e-13 2.27374e-13 12.6509 -14.6391 21.8604 -2.84217e-14 -32.4 -2 24.4921 -73.06 -50.9718 0 -25.65 2 49.9253 -24.2813 10.6305 -0.5 -1.5 2.65 -28.2845 -57.7566 122.667 0 -3.8 3.7 -0.017525 31.6016 -0.000133584 -2.27374e-13 -3 2.7 -0.00948139 28.738 0.00614842 -5.68434e-14 -1.9 1.6 3.53113e-31 3.18055e-15 -6.36111e-15 5.68434e-14 -8.3 1.9 -26.102 13.9149 3.78846 2.27374e-13 -4.5 -2.84217e-14 -56.1932 0.00200809 -0.00414096 0 -3.4 2.84217e-14 -38.9927 0.00133032 -0.0020167 -0.25 -2.2 0.4 3.53113e-31 3.18055e-15 -6.36111e-15 5.68434e-14 -8.3 1 -33.8479 15.2218 6.03376 0 -4.65 5.68434e-14 -72.2049 0.00093981 -0.000300696 -2.27374e-13 -3.3 8.52651e-14 -90.0002 2.90226e-14 -4.049e-14 -0.5 -2.15 -0.8 3.53113e-31 3.18055e-15 -6.36111e-15 -2.27374e-13 -7.75 -0.2 -70.7467 0.225565 10.1527 0 -3.8 0 -1.77323 -0.00220289 0.00186984 -2.27374e-13 -3.4 -5.68434e-14 -90.0002 -0.00108337 -6.91771e-14 -0.75 -1.75 -1.85 3.53113e-31 3.18055e-15 -6.36111e-15 0 -7.15 -1 -48.1294 11.8111 8.26308 2.27374e-13 -3 -5.68434e-14 -63.1178 0.00136984 -0.000756585 0 -2.35 8.52651e-14 -90.0002 -1.52667e-13 1.70408e-13 -5 17 0 -1.48931 0.488968 5.2618 -6.45 1.13687e-13 -2.27374e-13 -2.03125 0.526571 -0.336827 -6.45 -1.13687e-13 -2.27374e-13 -68.1124 -32.1203 -3.11742 5.68434e-14 -32.4 -2 -5.75653 -61.4076 -10.7015 0 -25.65 2 -9.182 16.2721 4.37784 0.5 -1.5 2.65 20.5215 14.2594 13.0079 -1.13687e-13 -3.8 3.7 1.13456 11.2069 -0.360239 0 -3 2.7 0.0434822 0.715142 -0.0569293 0 -1.9 1.6 8.34896e-15 0 1.59028e-15 0 -8.3 1.9 27.7886 7.50862 -2.0634 0 -4.5 0 14.8975 -0.0044588 -0.000965845 0 -3.4 0 12.4304 -0.0041161 -0.000673855 0.25 -2.2 0.4 8.34896e-15 0 1.59028e-15 0 -8.3 1 31.6801 5.88259 -2.76309 0 -4.65 0 61.7913 -0.00123205 0.00042101 0 -3.3 2.27374e-13 43.6238 -0.00240349 0.00672405 0.5 -2.15 -0.8 8.34896e-15 0 1.59028e-15 5.68434e-14 -7.75 -0.2 51.3871 8.84292 -7.84227 -1.13687e-13 -3.8 0 59.5402 0.0032926 -0.00128618 -1.13687e-13 -3.4 0 41.6869 0.000659576 -0.00308769 0.75 -1.75 -1.85 8.34896e-15 0 1.59028e-15 -5.68434e-14 -7.15 -1 64.4729 -6.93582 -1.17752 0 -3 2.27374e-13 25.1075 -0.00691928 0.00126365 0 -2.35 -2.27374e-13 19.124 -0.00366907 0.000592955 8 5.68434e-14 0 2.99277 -22.1935 -39.6325 0 -45 -1 0.411751 19.5796 -3.38856 0 -41 -2 2.0695 -3.02874 23.9179 0 -7.5 12.5 3.18055e-15 7.95139e-16 -6.36111e-15 -2.27374e-13 5.68434e-14 4 14.224 -4.08073 83.4182 -8 4.26326e-14 -4.54747e-13 3.76848 -13.7197 -19.2207 -2.27374e-13 -45 -1 0.149232 22.0705 -1.0748 -2.27374e-13 -41 -2 -3.16339 -13.1692 13.7768 -1.13687e-13 -7.5 12.5 -9.58496e-19 -0.00185781 6.36111e-15 1.13687e-13 0 4 2.96052 10.2957 56.0571 
-277.073 90.9236 1549.53 -0.240728 -5.62002 136.531 2.27374e-13 8 2.27374e-13 7.99307 23.6531 3.22743 1.13687e-13 8 0 -1.0846 7.61388 1.08652 -1.13687e-13 8 -4.54747e-13 -0.523725 3.81404 0.530121 0 8 0 -0.522482 3.8052 0.528863 1.13687e-13 17 0 -1.00977 3.53912 -3.15623 -1.13687e-13 10.8 0 -2.04414 8.30875 -7.30612 5 17 2.27374e-13 -10.3165 -2.54971 12.3612 6.45 0 0 -0.342159 -0.873141 1.86798 6.45 0 2.27374e-13 12.6537 -14.6767 21.898 -2.84217e-14 -32.4 -2 24.5329 -72.959 -50.8755 0 -25.65 2 49.9378 -24.3378 10.5461 -0.5 -1.5 2.65 -28.308 -57.7661 122.647 0 -3.8 3.7 -0.0175366 31.5816 -0.000143041 0 -3 2.7 -0.00953402 28.7066 0.00613948 0 -1.9 1.6 -6.36111e-15 0 -4.77083e-15 0 -8.3 1.9 -26.0787 13.9095 3.78373 2.27374e-13 -4.5 -2.84217e-14 -56.185 0.00200809 -0.00414096 0 -3.4 8.52651e-14 -38.9864 0.00133032 -0.0020167 -0.25 -2.2 0.4 -6.36111e-15 0 -4.77083e-15 5.68434e-14 -8.3 1 -33.8156 15.2158 6.02578 0 -4.65 -5.68434e-14 -72.2175 0.00093981 -0.000300696 0 -3.3 1.13687e-13 -90.0002 -1.92821e-13 1.90647e-13 -0.5 -2.15 -0.8 -6.36111e-15 0 -4.77083e-15 -2.27374e-13 -7.75 -0.2 -70.7274 0.22749 10.1507 0 -3.8 -5.68434e-14 -1.77323 -0.00219113 0.00186932 0 -3.4 -1.13687e-13 -90.0002 -0.00108337 -2.46493e-14 -0.75 -1.75 -1.85 -6.36111e-15 0 -4.77083e-15 0 -7.15 -1 -48.0923 11.8151 8.2562 1.13687e-13 -3 -2.84217e-14 -63.1168 0.00135696 -0.000756585 0 -2.35 8.52651e-14 -90.0002 -2.62396e-13 2.74546e-13 -5 17 -2.27374e-13 -1.49017 0.488957 5.25582 -6.45 1.13687e-13 0 -2.03165 0.526503 -0.338698 -6.45 0 -4.54747e-13 -68.12 -32.1352 -3.15771 0 -32.4 -2 -5.83635 -61.3788 -10.7962 0 -25.65 2 -9.17947 16.2713 4.42073 0.5 -1.5 2.65 20.5492 14.1819 13.0706 -1.13687e-13 -3.8 3.7 1.1355 11.3005 -0.360184 0 -3 2.7 0.0434293 0.715293 -0.0567665 0 -1.9 1.6 8.34896e-15 3.18055e-15 2.38542e-15 0 -8.3 1.9 27.7422 7.51414 -2.06322 0 -4.5 -2.27374e-13 14.8478 -0.00448733 -0.000927907 -2.27374e-13 -3.4 0 12.3951 -0.00413377 -0.000634629 0.25 -2.2 0.4 8.34896e-15 3.18055e-15 2.38542e-15 0 -8.3 1 31.6311 5.88382 -2.76125 0 -4.65 0 61.6556 -0.00118532 0.000447822 1.13687e-13 -3.3 0 43.5044 -0.00229729 0.00673925 0.5 -2.15 -0.8 8.34896e-15 3.18055e-15 2.38542e-15 1.13687e-13 -7.75 -0.2 51.3223 8.85192 -7.83293 0 -3.8 2.27374e-13 59.3182 0.00328965 -0.00134642 -1.13687e-13 -3.4 -2.27374e-13 41.5019 0.000705352 -0.00315011 0.75 -1.75 -1.85 8.34896e-15 3.18055e-15 2.38542e-15 -5.68434e-14 -7.15 -1 64.4116 -6.89037 -1.1959 0 -3 0 25.1577 -0.00705517 0.00136292 -1.13687e-13 -2.35 -2.27374e-13 19.155 -0.00378731 0.000675437 8 1.42109e-14 0 2.99052 -22.1983 -39.6312 0 -45 -1 0.410663 19.5619 -3.38777 2.27374e-13 -41 -2 2.08373 -3.02444 23.9169 0 -7.5 12.5 3.18055e-15 7.95139e-16 -3.18055e-15 0 5.68434e-14 4 14.225 -4.07737 83.418 -8 1.42109e-14 -2.27374e-13 3.76545 -13.7297 -19.2169 -6.82121e-13 -45 -1 0.148831 22.0702 -1.07318 0 -41 -2 -3.16522 -13.1699 13.7718 -1.13687e-13 -7.5 12.5 1.07376e-18 -0.00185781 3.18055e-15 0 -6.93889e-18 4 2.95965 10.3019 56.0586 
